<svg width="477" height="110" viewBox="0 0 477 110" fill="none" xmlns="http://www.w3.org/2000/svg">
<path d="M141.241 95.6522V72.4183H144.494V95.6522H141.241ZM161.234 95.6522V86.3787C161.234 85.1735 160.842 84.1804 160.058 83.3991C159.274 82.6179 158.259 82.2274 157.013 82.2274C156.183 82.2274 155.444 82.406 154.799 82.763C154.153 83.1201 153.645 83.6112 153.276 84.2361C152.907 84.8609 152.723 85.5752 152.723 86.3787L151.442 85.6756C151.442 84.4704 151.719 83.3991 152.273 82.4617C152.826 81.5244 153.599 80.7878 154.591 80.2522C155.583 79.6943 156.702 79.4152 157.947 79.4152C159.193 79.4152 160.289 79.7165 161.234 80.3191C162.203 80.9217 162.964 81.714 163.518 82.6961C164.072 83.6557 164.348 84.6825 164.348 85.7761V95.6522H161.234ZM149.608 95.6522V79.75H152.723V95.6522H149.608ZM170.888 95.6522V73.0878H174.002V95.6522H170.888ZM166.84 82.4952V79.75H178.05V82.4952H166.84ZM188.206 95.987C186.568 95.987 185.092 95.6299 183.777 94.9157C182.462 94.1791 181.424 93.186 180.663 91.9361C179.902 90.6861 179.521 89.2691 179.521 87.6843C179.521 86.1221 179.89 84.716 180.629 83.4661C181.39 82.2162 182.405 81.2343 183.673 80.52C184.965 79.7835 186.407 79.4152 187.999 79.4152C189.521 79.4152 190.859 79.75 192.012 80.4196C193.189 81.0891 194.1 82.0153 194.746 83.1983C195.415 84.3812 195.749 85.7204 195.749 87.2157C195.749 87.4388 195.738 87.6843 195.715 87.9522C195.692 88.1978 195.645 88.4878 195.576 88.8226H181.701V86.3117H193.915L192.773 87.2826C192.773 86.2113 192.577 85.3074 192.185 84.5709C191.793 83.8121 191.239 83.2317 190.524 82.83C189.809 82.406 188.944 82.1939 187.929 82.1939C186.868 82.1939 185.934 82.417 185.127 82.8635C184.319 83.3099 183.696 83.9348 183.258 84.7383C182.82 85.5417 182.601 86.4904 182.601 87.5839C182.601 88.6999 182.831 89.6818 183.293 90.53C183.754 91.3557 184.412 92.003 185.265 92.4717C186.118 92.9182 187.099 93.1413 188.206 93.1413C189.129 93.1413 189.971 92.9852 190.732 92.6726C191.516 92.3601 192.185 91.8914 192.739 91.2665L194.746 93.2417C193.962 94.1344 192.993 94.8152 191.839 95.2839C190.709 95.7526 189.498 95.987 188.206 95.987ZM199.145 95.6522V71.7487H202.259V95.6522H199.145ZM206.815 95.6522V71.7487H209.929V95.6522H206.815ZM214.52 95.6522V79.75H217.634V95.6522H214.52ZM216.077 76.5696C215.5 76.5696 215.027 76.3909 214.658 76.0339C214.289 75.6544 214.105 75.1857 214.105 74.6278C214.105 74.0922 214.289 73.6457 214.658 73.2887C215.027 72.9092 215.5 72.7196 216.077 72.7196C216.654 72.7196 217.126 72.9092 217.496 73.2887C217.865 73.6457 218.049 74.0922 218.049 74.6278C218.049 75.1857 217.865 75.6544 217.496 76.0339C217.126 76.3909 216.654 76.5696 216.077 76.5696ZM229.04 102.649C227.356 102.649 225.856 102.348 224.541 101.745C223.25 101.143 222.212 100.294 221.427 99.2009L223.434 97.2257C224.103 98.0514 224.899 98.6765 225.822 99.1004C226.745 99.5469 227.84 99.77 229.109 99.77C230.793 99.77 232.119 99.3348 233.088 98.4643C234.08 97.6161 234.576 96.4669 234.576 95.0161V91.0657L235.129 87.4835L234.576 83.9348V79.75H237.69V95.0161C237.69 96.5339 237.321 97.8617 236.583 99C235.868 100.138 234.853 101.031 233.538 101.678C232.246 102.326 230.747 102.649 229.04 102.649ZM229.04 95.3843C227.54 95.3843 226.191 95.0383 224.991 94.3465C223.815 93.6547 222.881 92.7061 222.189 91.5009C221.497 90.2734 221.151 88.9008 221.151 87.383C221.151 85.8653 221.497 84.5152 222.189 83.3322C222.881 82.127 223.815 81.1783 224.991 80.4865C226.191 79.7722 227.54 79.4152 229.04 79.4152C230.331 79.4152 231.473 79.6608 232.465 80.1517C233.457 80.6427 234.241 81.3347 234.818 82.2274C235.418 83.0978 235.741 84.1244 235.787 85.3074V89.5257C235.718 90.6862 235.383 91.713 234.783 92.6057C234.207 93.4761 233.423 94.1569 232.43 94.6478C231.439 95.1388 230.308 95.3843 229.04 95.3843ZM229.662 92.5387C230.677 92.5387 231.565 92.3266 232.327 91.9026C233.111 91.4786 233.711 90.887 234.126 90.1283C234.541 89.347 234.749 88.4431 234.749 87.4165C234.749 86.3899 234.53 85.497 234.091 84.7383C233.676 83.957 233.088 83.3544 232.327 82.9304C231.565 82.484 230.666 82.2609 229.628 82.2609C228.59 82.2609 227.679 82.484 226.894 82.9304C226.11 83.3544 225.487 83.957 225.026 84.7383C224.588 85.497 224.368 86.3787 224.368 87.383C224.368 88.3874 224.588 89.2801 225.026 90.0613C225.487 90.8425 226.11 91.4561 226.894 91.9026C227.702 92.3266 228.624 92.5387 229.662 92.5387ZM249.874 95.987C248.235 95.987 246.759 95.6299 245.444 94.9157C244.129 94.1791 243.091 93.186 242.33 91.9361C241.569 90.6861 241.188 89.2691 241.188 87.6843C241.188 86.1221 241.557 84.716 242.295 83.4661C243.057 82.2162 244.072 81.2343 245.34 80.52C246.632 79.7835 248.075 79.4152 249.666 79.4152C251.189 79.4152 252.526 79.75 253.68 80.4196C254.856 81.0891 255.766 82.0153 256.413 83.1983C257.081 84.3812 257.417 85.7204 257.417 87.2157C257.417 87.4388 257.405 87.6843 257.382 87.9522C257.358 88.1978 257.313 88.4878 257.244 88.8226H243.368V86.3117H255.583L254.441 87.2826C254.441 86.2113 254.243 85.3074 253.853 84.5709C253.46 83.8121 252.906 83.2317 252.192 82.83C251.475 82.406 250.61 82.1939 249.597 82.1939C248.534 82.1939 247.6 82.417 246.794 82.8635C245.986 83.3099 245.363 83.9348 244.925 84.7383C244.487 85.5417 244.268 86.4904 244.268 87.5839C244.268 88.6999 244.498 89.6818 244.96 90.53C245.421 91.3557 246.078 92.003 246.932 92.4717C247.785 92.9182 248.767 93.1413 249.874 93.1413C250.796 93.1413 251.639 92.9852 252.4 92.6726C253.183 92.3601 253.853 91.8914 254.407 91.2665L256.413 93.2417C255.628 94.1344 254.659 94.8152 253.507 95.2839C252.375 95.7526 251.164 95.987 249.874 95.987ZM272.439 95.6522V86.3787C272.439 85.1735 272.046 84.1804 271.262 83.3991C270.476 82.6179 269.463 82.2274 268.217 82.2274C267.387 82.2274 266.648 82.406 266.003 82.763C265.355 83.1201 264.849 83.6112 264.48 84.2361C264.11 84.8609 263.927 85.5752 263.927 86.3787L262.647 85.6756C262.647 84.4704 262.923 83.3991 263.477 82.4617C264.031 81.5244 264.802 80.7878 265.795 80.2522C266.786 79.6943 267.906 79.4152 269.152 79.4152C270.397 79.4152 271.492 79.7165 272.439 80.3191C273.408 80.9217 274.169 81.714 274.722 82.6961C275.276 83.6557 275.553 84.6825 275.553 85.7761V95.6522H272.439ZM260.813 95.6522V79.75H263.927V95.6522H260.813ZM282.09 95.6522V73.0878H285.204V95.6522H282.09ZM278.042 82.4952V79.75H289.252V82.4952H278.042ZM297.309 95.6522L307.136 72.4183H309.489L319.281 95.6522H315.752L307.69 76.0004H308.901L300.769 95.6522H297.309ZM301.981 90.3961V87.6509H314.61V90.3961H301.981ZM322.897 95.6522V72.4183H326.149V95.6522H322.897ZM336.27 95.6522L346.097 72.4183H348.45L358.242 95.6522H354.713L346.65 76.0004H347.862L339.73 95.6522H336.27ZM340.941 90.3961V87.6509H353.571V90.3961H340.941ZM366.798 95.987C365.876 95.987 364.999 95.8753 364.168 95.6522C363.36 95.4066 362.611 95.0718 361.919 94.6478C361.227 94.2014 360.627 93.677 360.12 93.0743L362.127 91.1326C362.728 91.8469 363.42 92.3825 364.203 92.7396C364.987 93.0744 365.864 93.2417 366.833 93.2417C367.802 93.2417 368.55 93.0856 369.082 92.773C369.613 92.4383 369.878 91.9808 369.878 91.4004C369.878 90.8201 369.658 90.3738 369.22 90.0613C368.805 89.7265 368.264 89.4587 367.594 89.2578C366.924 89.0347 366.21 88.8226 365.449 88.6217C364.71 88.3986 364.008 88.1196 363.338 87.7848C362.668 87.45 362.115 86.9925 361.677 86.4122C361.262 85.8318 361.054 85.0618 361.054 84.1022C361.054 83.1425 361.297 82.3166 361.781 81.6248C362.265 80.9105 362.935 80.3639 363.788 79.9844C364.665 79.6049 365.713 79.4152 366.937 79.4152C368.229 79.4152 369.371 79.6383 370.362 80.0848C371.378 80.5088 372.208 81.1561 372.853 82.0265L370.846 83.9683C370.384 83.3879 369.808 82.9417 369.116 82.6291C368.447 82.3166 367.685 82.1604 366.833 82.1604C365.933 82.1604 365.241 82.3166 364.757 82.6291C364.295 82.9192 364.065 83.3322 364.065 83.8678C364.065 84.4035 364.272 84.8165 364.688 85.1065C365.103 85.3966 365.644 85.6422 366.314 85.843C367.006 86.0439 367.72 86.256 368.459 86.4791C369.198 86.68 369.9 86.9591 370.57 87.3161C371.239 87.6731 371.781 88.153 372.196 88.7557C372.633 89.3583 372.853 90.1505 372.853 91.1326C372.853 92.6279 372.3 93.8109 371.192 94.6813C370.108 95.5517 368.644 95.987 366.798 95.987ZM381.565 95.987C380.641 95.987 379.766 95.8753 378.936 95.6522C378.128 95.4066 377.379 95.0718 376.687 94.6478C375.995 94.2014 375.394 93.677 374.887 93.0743L376.894 91.1326C377.492 91.8469 378.184 92.3825 378.97 92.7396C379.754 93.0744 380.631 93.2417 381.6 93.2417C382.569 93.2417 383.318 93.0856 383.849 92.773C384.378 92.4383 384.645 91.9808 384.645 91.4004C384.645 90.8201 384.425 90.3738 383.987 90.0613C383.572 89.7265 383.029 89.4587 382.361 89.2578C381.691 89.0347 380.977 88.8226 380.216 88.6217C379.477 88.3986 378.773 88.1196 378.105 87.7848C377.436 87.45 376.882 86.9925 376.444 86.4122C376.029 85.8318 375.822 85.0618 375.822 84.1022C375.822 83.1425 376.064 82.3166 376.548 81.6248C377.033 80.9105 377.7 80.3639 378.555 79.9844C379.43 79.6049 380.48 79.4152 381.704 79.4152C382.994 79.4152 384.136 79.6383 385.129 80.0848C386.143 80.5088 386.973 81.1561 387.621 82.0265L385.614 83.9683C385.152 83.3879 384.576 82.9417 383.884 82.6291C383.214 82.3166 382.453 82.1604 381.6 82.1604C380.7 82.1604 380.008 82.3166 379.524 82.6291C379.062 82.9192 378.832 83.3322 378.832 83.8678C378.832 84.4035 379.04 84.8165 379.455 85.1065C379.87 85.3966 380.411 85.6422 381.081 85.843C381.773 86.0439 382.487 86.256 383.226 86.4791C383.963 86.68 384.667 86.9591 385.337 87.3161C386.004 87.6731 386.548 88.153 386.963 88.7557C387.401 89.3583 387.621 90.1505 387.621 91.1326C387.621 92.6279 387.067 93.8109 385.96 94.6813C384.875 95.5517 383.409 95.987 381.565 95.987ZM391.14 95.6522V79.75H394.254V95.6522H391.14ZM392.697 76.5696C392.121 76.5696 391.649 76.3909 391.278 76.0339C390.91 75.6544 390.725 75.1857 390.725 74.6278C390.725 74.0922 390.91 73.6457 391.278 73.2887C391.649 72.9092 392.121 72.7196 392.697 72.7196C393.275 72.7196 393.747 72.9092 394.116 73.2887C394.486 73.6457 394.669 74.0922 394.669 74.6278C394.669 75.1857 394.486 75.6544 394.116 76.0339C393.747 76.3909 393.275 76.5696 392.697 76.5696ZM404.068 95.987C403.147 95.987 402.269 95.8753 401.439 95.6522C400.631 95.4066 399.882 95.0718 399.19 94.6478C398.498 94.2014 397.897 93.677 397.39 93.0743L399.397 91.1326C399.998 91.8469 400.69 92.3825 401.473 92.7396C402.257 93.0744 403.134 93.2417 404.103 93.2417C405.072 93.2417 405.821 93.0856 406.352 92.773C406.883 92.4383 407.148 91.9808 407.148 91.4004C407.148 90.8201 406.928 90.3738 406.49 90.0613C406.075 89.7265 405.534 89.4587 404.864 89.2578C404.194 89.0347 403.48 88.8226 402.719 88.6217C401.98 88.3986 401.278 88.1196 400.608 87.7848C399.939 87.45 399.385 86.9925 398.947 86.4122C398.532 85.8318 398.325 85.0618 398.325 84.1022C398.325 83.1425 398.567 82.3166 399.051 81.6248C399.536 80.9105 400.205 80.3639 401.058 79.9844C401.936 79.6049 402.983 79.4152 404.207 79.4152C405.499 79.4152 406.641 79.6383 407.632 80.0848C408.648 80.5088 409.479 81.1561 410.124 82.0265L408.117 83.9683C407.655 83.3879 407.079 82.9417 406.387 82.6291C405.717 82.3166 404.956 82.1604 404.103 82.1604C403.203 82.1604 402.511 82.3166 402.027 82.6291C401.565 82.9192 401.335 83.3322 401.335 83.8678C401.335 84.4035 401.543 84.8165 401.958 85.1065C402.373 85.3966 402.914 85.6422 403.584 85.843C404.276 86.0439 404.99 86.256 405.729 86.4791C406.468 86.68 407.17 86.9591 407.84 87.3161C408.51 87.6731 409.051 88.153 409.466 88.7557C409.904 89.3583 410.124 90.1505 410.124 91.1326C410.124 92.6279 409.57 93.8109 408.463 94.6813C407.378 95.5517 405.915 95.987 404.068 95.987ZM416.137 95.6522V73.0878H419.251V95.6522H416.137ZM412.088 82.4952V79.75H423.299V82.4952H412.088ZM432.832 95.987C431.332 95.987 429.972 95.6299 428.749 94.9157C427.525 94.1791 426.557 93.186 425.842 91.9361C425.15 90.6861 424.804 89.2801 424.804 87.7178C424.804 86.1556 425.15 84.7495 425.842 83.4996C426.557 82.2496 427.516 81.2565 428.714 80.52C429.938 79.7835 431.309 79.4152 432.832 79.4152C434.077 79.4152 435.185 79.6718 436.153 80.1852C437.145 80.6762 437.94 81.3682 438.541 82.2609C439.142 83.1313 439.475 84.1469 439.544 85.3074V90.0948C439.475 91.233 439.142 92.2486 438.541 93.1413C437.965 94.034 437.179 94.737 436.188 95.2504C435.219 95.7414 434.1 95.987 432.832 95.987ZM433.351 93.1413C434.895 93.1413 436.141 92.6391 437.088 91.6348C438.034 90.6082 438.506 89.3025 438.506 87.7178C438.506 86.6243 438.286 85.6757 437.849 84.8722C437.434 84.0465 436.833 83.4104 436.05 82.9639C435.266 82.4952 434.354 82.2609 433.316 82.2609C432.278 82.2609 431.356 82.4952 430.548 82.9639C429.765 83.4326 429.142 84.0799 428.68 84.9057C428.242 85.7091 428.022 86.6353 428.022 87.6843C428.022 88.7557 428.242 89.7043 428.68 90.53C429.142 91.3335 429.775 91.9696 430.583 92.4383C431.391 92.907 432.313 93.1413 433.351 93.1413ZM438.299 95.6522V91.367L438.887 87.4835L438.299 83.6335V79.75H441.447V95.6522H438.299ZM457.606 95.6522V86.3787C457.606 85.1735 457.216 84.1804 456.43 83.3991C455.646 82.6179 454.63 82.2274 453.385 82.2274C452.554 82.2274 451.818 82.406 451.17 82.763C450.525 83.1201 450.019 83.6112 449.648 84.2361C449.28 84.8609 449.094 85.5752 449.094 86.3787L447.814 85.6756C447.814 84.4704 448.091 83.3991 448.644 82.4617C449.198 81.5244 449.972 80.7878 450.963 80.2522C451.956 79.6943 453.073 79.4152 454.319 79.4152C455.565 79.4152 456.662 79.7165 457.606 80.3191C458.575 80.9217 459.336 81.714 459.89 82.6961C460.443 83.6557 460.72 84.6825 460.72 85.7761V95.6522H457.606ZM445.98 95.6522V79.75H449.094V95.6522H445.98ZM467.26 95.6522V73.0878H470.374V95.6522H467.26ZM463.212 82.4952V79.75H474.422V82.4952H463.212Z" fill="#E6CCFF"/>
<path d="M83.1153 0.892067H31.6275C15.2478 0.892067 1.96948 13.7395 1.96948 29.5877V79.4048C1.96948 95.253 15.2478 108.1 31.6275 108.1H83.1153C99.495 108.1 112.773 95.253 112.773 79.4048V29.5877C112.773 13.7395 99.495 0.892067 83.1153 0.892067Z" fill="url(#paint0_linear_1_2)"/>
<path fill-rule="evenodd" clip-rule="evenodd" d="M44.3299 76.9665L66.4866 55.5211C69.9804 52.1395 69.9722 46.6558 66.4684 43.2838C62.9793 39.9262 57.3406 39.9312 53.8583 43.2955L31.6802 64.7202C28.1813 68.1003 28.1791 73.5852 31.6753 76.9677C35.17 80.349 40.8359 80.3485 44.3299 76.9665ZM53.8276 49.4063L60.1574 55.5306L63.3224 52.4683C65.0702 50.7772 65.0702 48.0351 63.3224 46.344C61.5743 44.6528 58.7405 44.6528 56.9926 46.344L53.8276 49.4063Z" fill="white"/>
<path d="M40.4039 30.7194C40.614 29.964 41.7217 29.964 41.9318 30.7194L43.0635 34.7861C43.1369 35.0496 43.3497 35.2552 43.6218 35.3263L47.8251 36.4212C48.6056 36.6245 48.6056 37.6963 47.8251 37.8998L43.6218 38.9945C43.3497 39.0655 43.1369 39.2714 43.0635 39.5347L41.9318 43.6016C41.7217 44.357 40.614 44.357 40.4039 43.6016L39.2722 39.5347C39.1988 39.2714 38.9862 39.0655 38.7139 38.9945L34.5108 37.8998C33.7301 37.6963 33.7301 36.6245 34.5108 36.4212L38.7139 35.3263C38.9862 35.2552 39.1988 35.0496 39.2722 34.7861L40.4039 30.7194Z" fill="white"/>
<path d="M72.0554 27.6602C72.2657 26.9048 73.3735 26.9048 73.5836 27.6602L74.7153 31.7269C74.7884 31.9904 75.0015 32.196 75.2736 32.2671L79.4766 33.362C80.2574 33.5653 80.2574 34.6371 79.4766 34.8406L75.2736 35.9353C75.0015 36.0063 74.7884 36.2122 74.7153 36.4758L73.5836 40.5424C73.3735 41.2978 72.2657 41.2978 72.0554 40.5424L70.9237 36.4758C70.8506 36.2122 70.638 36.0063 70.3654 35.9353L66.1624 34.8406C65.3816 34.6371 65.3816 33.5653 66.1624 33.362L70.3654 32.2671C70.638 32.196 70.8506 31.9904 70.9237 31.7269L72.0554 27.6602Z" fill="white"/>
<path d="M75.2172 55.2257C75.4275 54.4701 76.5353 54.4701 76.7453 55.2257L77.877 59.2922C77.9502 59.5559 78.1632 59.7616 78.4354 59.8324L82.6384 60.9276C83.4191 61.1308 83.4191 62.2026 82.6384 62.4059L78.4354 63.5008C78.1632 63.5716 77.9502 63.7775 77.877 64.041L76.7453 68.1077C76.5353 68.8631 75.4275 68.8631 75.2172 68.1077L74.0855 64.041C74.0124 63.7775 73.7998 63.5716 73.5272 63.5008L69.3242 62.4059C68.5434 62.2026 68.5434 61.1308 69.3242 60.9276L73.5272 59.8324C73.7998 59.7616 74.0124 59.5559 74.0855 59.2922L75.2172 55.2257Z" fill="white"/>
<path d="M168.273 35.3906C168.024 34.5265 167.675 33.763 167.225 33.1001C166.775 32.4254 166.225 31.8572 165.574 31.3956C164.935 30.9221 164.201 30.5611 163.372 30.3125C162.555 30.0639 161.65 29.9396 160.656 29.9396C158.797 29.9396 157.164 30.4013 155.755 31.3246C154.358 32.2479 153.269 33.5914 152.488 35.3551C151.707 37.107 151.316 39.2495 151.316 41.7827C151.316 44.3158 151.701 46.4702 152.47 48.2457C153.24 50.0213 154.329 51.3767 155.737 52.3118C157.146 53.2351 158.809 53.6967 160.727 53.6967C162.467 53.6967 163.952 53.389 165.183 52.7734C166.426 52.1461 167.373 51.2642 168.024 50.1278C168.687 48.9915 169.018 47.648 169.018 46.0973L170.581 46.3281H161.206V40.5398H176.423V45.1207C176.423 48.3168 175.748 51.063 174.398 53.3594C173.049 55.6439 171.191 57.4077 168.823 58.6506C166.456 59.8816 163.745 60.4972 160.691 60.4972C157.282 60.4972 154.287 59.7455 151.707 58.2422C149.126 56.727 147.114 54.5786 145.67 51.7969C144.237 49.0033 143.521 45.6889 143.521 41.8537C143.521 38.9062 143.947 36.2784 144.8 33.9702C145.664 31.6501 146.871 29.6851 148.422 28.0753C149.973 26.4654 151.778 25.2403 153.837 24.3999C155.897 23.5594 158.128 23.1392 160.531 23.1392C162.591 23.1392 164.509 23.4411 166.284 24.0447C168.06 24.6366 169.634 25.477 171.007 26.5661C172.392 27.6551 173.522 28.9512 174.398 30.4545C175.274 31.946 175.837 33.5914 176.085 35.3906H168.273ZM181.556 60V32.7273H188.889V37.4858H189.173C189.67 35.7931 190.504 34.5147 191.676 33.6506C192.848 32.7746 194.198 32.3366 195.725 32.3366C196.103 32.3366 196.512 32.3603 196.95 32.4077C197.388 32.455 197.772 32.5201 198.104 32.603V39.3146C197.749 39.2081 197.258 39.1134 196.63 39.0305C196.003 38.9477 195.429 38.9062 194.908 38.9062C193.795 38.9062 192.801 39.1489 191.925 39.6342C191.061 40.1077 190.374 40.7706 189.865 41.6229C189.368 42.4751 189.119 43.4576 189.119 44.5703V60H181.556ZM201.515 60V32.7273H209.078V60H201.515ZM205.314 29.2116C204.19 29.2116 203.225 28.8388 202.42 28.093C201.627 27.3355 201.23 26.4299 201.23 25.3764C201.23 24.3348 201.627 23.4411 202.42 22.6953C203.225 21.9377 204.19 21.5589 205.314 21.5589C206.439 21.5589 207.398 21.9377 208.191 22.6953C208.996 23.4411 209.398 24.3348 209.398 25.3764C209.398 26.4299 208.996 27.3355 208.191 28.093C207.398 28.8388 206.439 29.2116 205.314 29.2116ZM214.638 60V32.7273H221.846V37.5391H222.166C222.734 35.9411 223.681 34.6804 225.007 33.7571C226.333 32.8338 227.919 32.3722 229.765 32.3722C231.636 32.3722 233.228 32.8397 234.542 33.7749C235.856 34.6982 236.732 35.9529 237.17 37.5391H237.454C238.01 35.9766 239.016 34.7277 240.472 33.7926C241.94 32.8456 243.674 32.3722 245.675 32.3722C248.22 32.3722 250.285 33.183 251.871 34.8047C253.469 36.4145 254.268 38.6991 254.268 41.6584V60H246.722V43.1499C246.722 41.6347 246.32 40.4983 245.515 39.7408C244.71 38.9832 243.704 38.6044 242.496 38.6044C241.123 38.6044 240.052 39.0424 239.282 39.9183C238.513 40.7824 238.128 41.9247 238.128 43.3452V60H230.795V42.9901C230.795 41.6525 230.411 40.5871 229.641 39.794C228.884 39.0009 227.883 38.6044 226.64 38.6044C225.8 38.6044 225.042 38.8175 224.368 39.2436C223.705 39.6579 223.178 40.2438 222.787 41.0014C222.397 41.7472 222.202 42.6231 222.202 43.6293V60H214.638ZM277.225 60H268.987L281.54 23.6364H291.447L303.983 60H295.744L286.636 31.946H286.352L277.225 60ZM276.71 45.7067H296.17V51.7081H276.71V45.7067ZM315.548 23.6364V60H307.86V23.6364H315.548Z" fill="white"/>
<defs>
<linearGradient id="paint0_linear_1_2" x1="127.547" y1="40.2019" x2="-5.08791" y2="66.8569" gradientUnits="userSpaceOnUse">
<stop stop-color="#4080F6"/>
<stop offset="1" stop-color="#A356F7"/>
</linearGradient>
</defs>
</svg>
