<?xml version="1.0" encoding="utf-8"?>
<svg xmlns="http://www.w3.org/2000/svg" viewBox="0 0 500 500" xmlns:bx="https://boxy-svg.com">
  <defs>
    <style bx:fonts="Aleo">@import url(https://fonts.googleapis.com/css2?family=Aleo%3Aital%2Cwght%400%2C100..900%3B1%2C100..900&amp;display=swap);</style>
    <linearGradient id="paint0_linear_8961_4661" x1="51.6072" y1="16.8117" x2="-2.19197" y2="27.2726" gradientUnits="userSpaceOnUse" gradientTransform="matrix(1, 0, 0, 1, 160.275469, 218.596111)">
      <stop stop-color="#4080F6"/>
      <stop offset="1" stop-color="#A356F7"/>
    </linearGradient>
  </defs>
  <path fill-rule="evenodd" clip-rule="evenodd" d="M 259.651 294.872 L 267.101 288.778 C 268.276 287.818 268.273 286.26 267.095 285.302 C 265.922 284.348 264.025 284.349 262.855 285.305 L 255.398 291.392 C 254.221 292.353 254.22 293.911 255.396 294.873 C 256.571 295.833 258.476 295.833 259.651 294.872 Z M 262.844 287.041 L 264.973 288.781 L 266.037 287.912 C 266.625 287.431 266.625 286.652 266.037 286.171 C 265.449 285.691 264.497 285.691 263.909 286.171 L 262.844 287.041 Z" fill="white" style="stroke-width: 1;"/>
  <path d="M 258.33 281.732 C 258.401 281.518 258.774 281.518 258.845 281.732 L 259.225 282.887 C 259.25 282.962 259.321 283.02 259.412 283.041 L 260.826 283.352 C 261.089 283.41 261.089 283.714 260.826 283.772 L 259.412 284.083 C 259.321 284.103 259.25 284.162 259.225 284.237 L 258.845 285.392 C 258.774 285.607 258.401 285.607 258.33 285.392 L 257.95 284.237 C 257.926 284.162 257.854 284.103 257.763 284.083 L 256.35 283.772 C 256.087 283.714 256.087 283.41 256.35 283.352 L 257.763 283.041 C 257.854 283.02 257.926 282.962 257.95 282.887 L 258.33 281.732 Z" fill="white" style="stroke-width: 1;"/>
  <path d="M 268.973 280.862 C 269.044 280.648 269.416 280.648 269.487 280.862 L 269.868 282.018 C 269.893 282.093 269.964 282.151 270.055 282.172 L 271.469 282.483 C 271.732 282.541 271.732 282.845 271.469 282.903 L 270.055 283.214 C 269.964 283.234 269.893 283.293 269.868 283.367 L 269.487 284.522 C 269.416 284.737 269.044 284.737 268.973 284.522 L 268.593 283.367 C 268.569 283.293 268.497 283.234 268.405 283.214 L 266.992 282.903 C 266.73 282.845 266.73 282.541 266.992 282.483 L 268.405 282.172 C 268.497 282.151 268.569 282.093 268.593 282.018 L 268.973 280.862 Z" fill="white" style="stroke-width: 1;"/>
  <path d="M 270.036 288.695 C 270.107 288.48 270.48 288.48 270.551 288.695 L 270.931 289.85 C 270.956 289.925 271.027 289.984 271.118 290.003 L 272.532 290.315 C 272.795 290.373 272.795 290.677 272.532 290.735 L 271.118 291.046 C 271.027 291.066 270.956 291.125 270.931 291.199 L 270.551 292.355 C 270.48 292.57 270.107 292.57 270.036 292.355 L 269.656 291.199 C 269.632 291.125 269.56 291.066 269.468 291.046 L 268.055 290.735 C 267.792 290.677 267.792 290.373 268.055 290.315 L 269.468 290.003 C 269.56 289.984 269.632 289.925 269.656 289.85 L 270.036 288.695 Z" fill="white" style="stroke-width: 1;"/>
  <text style="font-family: Aleo; font-size: 36px; font-style: italic; font-weight: 713; letter-spacing: -1.5px; stroke-opacity: 0.76; word-spacing: 1.1px; white-space: pre;" transform="matrix(0.610938, 0, 0, 0.542089, 66.842759, 63.217397)" x="158.954" y="328.403" dx="87.24" dy="1.327">Grim AI </text>
  <rect x="161.072" y="218.97" width="44.833" height="44.833" rx="12" fill="url(#paint0_linear_8961_4661)" style="stroke-width: 1;"/>
  <path fill-rule="evenodd" clip-rule="evenodd" d="M 178.212 250.783 L 187.177 241.815 C 188.59 240.4 188.587 238.107 187.169 236.697 C 185.758 235.293 183.476 235.295 182.067 236.702 L 173.094 245.661 C 171.678 247.075 171.677 249.369 173.092 250.783 C 174.506 252.197 176.798 252.197 178.212 250.783 Z M 182.055 239.257 L 184.616 241.819 L 185.896 240.538 C 186.604 239.831 186.604 238.684 185.896 237.977 C 185.189 237.27 184.042 237.27 183.335 237.977 L 182.055 239.257 Z" fill="white" style="stroke-width: 1;"/>
  <path d="M 176.623 231.443 C 176.708 231.127 177.156 231.127 177.241 231.443 L 177.699 233.144 C 177.729 233.254 177.815 233.34 177.925 233.369 L 179.626 233.827 C 179.942 233.912 179.942 234.361 179.626 234.446 L 177.925 234.903 C 177.815 234.933 177.729 235.019 177.699 235.129 L 177.241 236.83 C 177.156 237.146 176.708 237.146 176.623 236.83 L 176.165 235.129 C 176.136 235.019 176.05 234.933 175.939 234.903 L 174.239 234.446 C 173.923 234.361 173.923 233.912 174.239 233.827 L 175.939 233.369 C 176.05 233.34 176.136 233.254 176.165 233.144 L 176.623 231.443 Z" fill="white" style="stroke-width: 1;"/>
  <path d="M 189.43 230.164 C 189.515 229.848 189.963 229.848 190.048 230.164 L 190.506 231.864 C 190.536 231.974 190.622 232.06 190.732 232.09 L 192.433 232.548 C 192.748 232.633 192.748 233.081 192.433 233.166 L 190.732 233.624 C 190.622 233.654 190.536 233.74 190.506 233.85 L 190.048 235.551 C 189.963 235.867 189.515 235.867 189.43 235.551 L 188.972 233.85 C 188.942 233.74 188.856 233.654 188.746 233.624 L 187.045 233.166 C 186.73 233.081 186.73 232.633 187.045 232.548 L 188.746 232.09 C 188.856 232.06 188.942 231.974 188.972 231.864 L 189.43 230.164 Z" fill="white" style="stroke-width: 1;"/>
  <path d="M 190.709 241.691 C 190.794 241.375 191.242 241.375 191.327 241.691 L 191.785 243.392 C 191.815 243.502 191.901 243.588 192.011 243.617 L 193.712 244.075 C 194.028 244.16 194.028 244.609 193.712 244.694 L 192.011 245.152 C 191.901 245.181 191.815 245.267 191.785 245.377 L 191.327 247.078 C 191.242 247.394 190.794 247.394 190.709 247.078 L 190.251 245.377 C 190.222 245.267 190.136 245.181 190.025 245.152 L 188.325 244.694 C 188.009 244.609 188.009 244.16 188.325 244.075 L 190.025 243.617 C 190.136 243.588 190.222 243.502 190.251 243.392 L 190.709 241.691 Z" fill="white" style="stroke-width: 1;"/>
  <path d="M 209.765 261.015 L 209.765 251.299 L 211.081 251.299 L 211.081 261.015 L 209.765 261.015 Z M 217.855 261.015 L 217.855 257.137 C 217.855 256.633 217.696 256.217 217.379 255.891 C 217.061 255.564 216.651 255.401 216.147 255.401 C 215.811 255.401 215.512 255.475 215.251 255.625 C 214.989 255.774 214.784 255.979 214.635 256.241 C 214.485 256.502 214.411 256.801 214.411 257.137 L 213.893 256.843 C 213.893 256.339 214.005 255.891 214.229 255.499 C 214.453 255.107 214.765 254.799 215.167 254.575 C 215.568 254.341 216.021 254.225 216.525 254.225 C 217.029 254.225 217.472 254.351 217.855 254.603 C 218.247 254.855 218.555 255.186 218.779 255.597 C 219.003 255.998 219.115 256.427 219.115 256.885 L 219.115 261.015 L 217.855 261.015 Z M 213.151 261.015 L 213.151 254.365 L 214.411 254.365 L 214.411 261.015 L 213.151 261.015 Z M 221.761 261.015 L 221.761 251.579 L 223.021 251.579 L 223.021 261.015 L 221.761 261.015 Z M 220.123 255.513 L 220.123 254.365 L 224.659 254.365 L 224.659 255.513 L 220.123 255.513 Z M 228.768 261.155 C 228.105 261.155 227.508 261.005 226.976 260.707 C 226.444 260.399 226.024 259.983 225.716 259.461 C 225.408 258.938 225.254 258.345 225.254 257.683 C 225.254 257.029 225.403 256.441 225.702 255.919 C 226.01 255.396 226.421 254.985 226.934 254.687 C 227.457 254.379 228.04 254.225 228.684 254.225 C 229.3 254.225 229.841 254.365 230.308 254.645 C 230.784 254.925 231.153 255.312 231.414 255.807 C 231.685 256.301 231.82 256.861 231.82 257.487 C 231.82 257.58 231.815 257.683 231.806 257.795 C 231.797 257.897 231.778 258.019 231.75 258.159 L 226.136 258.159 L 226.136 257.109 L 231.078 257.109 L 230.616 257.515 C 230.616 257.067 230.537 256.689 230.378 256.381 C 230.219 256.063 229.995 255.821 229.706 255.653 C 229.417 255.475 229.067 255.387 228.656 255.387 C 228.227 255.387 227.849 255.48 227.522 255.667 C 227.195 255.853 226.943 256.115 226.766 256.451 C 226.589 256.787 226.5 257.183 226.5 257.641 C 226.5 258.107 226.593 258.518 226.78 258.873 C 226.967 259.218 227.233 259.489 227.578 259.685 C 227.923 259.871 228.32 259.965 228.768 259.965 C 229.141 259.965 229.482 259.899 229.79 259.769 C 230.107 259.638 230.378 259.442 230.602 259.181 L 231.414 260.007 C 231.097 260.38 230.705 260.665 230.238 260.861 C 229.781 261.057 229.291 261.155 228.768 261.155 Z M 233.194 261.015 L 233.194 251.019 L 234.454 251.019 L 234.454 261.015 L 233.194 261.015 Z M 236.297 261.015 L 236.297 251.019 L 237.557 251.019 L 237.557 261.015 L 236.297 261.015 Z M 239.415 261.015 L 239.415 254.365 L 240.675 254.365 L 240.675 261.015 L 239.415 261.015 Z M 240.045 253.035 C 239.811 253.035 239.62 252.96 239.471 252.811 C 239.321 252.652 239.247 252.456 239.247 252.223 C 239.247 251.999 239.321 251.812 239.471 251.663 C 239.62 251.504 239.811 251.425 240.045 251.425 C 240.278 251.425 240.469 251.504 240.619 251.663 C 240.768 251.812 240.843 251.999 240.843 252.223 C 240.843 252.456 240.768 252.652 240.619 252.811 C 240.469 252.96 240.278 253.035 240.045 253.035 Z M 245.29 263.941 C 244.608 263.941 244.002 263.815 243.47 263.563 C 242.947 263.311 242.527 262.956 242.21 262.499 L 243.022 261.673 C 243.292 262.018 243.614 262.279 243.988 262.457 C 244.361 262.643 244.804 262.737 245.318 262.737 C 245.999 262.737 246.536 262.555 246.928 262.191 C 247.329 261.836 247.53 261.355 247.53 260.749 L 247.53 259.097 L 247.754 257.599 L 247.53 256.115 L 247.53 254.365 L 248.79 254.365 L 248.79 260.749 C 248.79 261.383 248.64 261.939 248.342 262.415 C 248.052 262.891 247.642 263.264 247.11 263.535 C 246.587 263.805 245.98 263.941 245.29 263.941 Z M 245.29 260.903 C 244.683 260.903 244.137 260.758 243.652 260.469 C 243.176 260.179 242.798 259.783 242.518 259.279 C 242.238 258.765 242.098 258.191 242.098 257.557 C 242.098 256.922 242.238 256.357 242.518 255.863 C 242.798 255.359 243.176 254.962 243.652 254.673 C 244.137 254.374 244.683 254.225 245.29 254.225 C 245.812 254.225 246.274 254.327 246.676 254.533 C 247.077 254.738 247.394 255.027 247.628 255.401 C 247.87 255.765 248.001 256.194 248.02 256.689 L 248.02 258.453 C 247.992 258.938 247.856 259.367 247.614 259.741 C 247.38 260.105 247.063 260.389 246.662 260.595 C 246.26 260.8 245.803 260.903 245.29 260.903 Z M 245.542 259.713 C 245.952 259.713 246.312 259.624 246.62 259.447 C 246.937 259.269 247.18 259.022 247.348 258.705 C 247.516 258.378 247.6 258 247.6 257.571 C 247.6 257.141 247.511 256.768 247.334 256.451 C 247.166 256.124 246.928 255.872 246.62 255.695 C 246.312 255.508 245.948 255.415 245.528 255.415 C 245.108 255.415 244.739 255.508 244.422 255.695 C 244.104 255.872 243.852 256.124 243.666 256.451 C 243.488 256.768 243.4 257.137 243.4 257.557 C 243.4 257.977 243.488 258.35 243.666 258.677 C 243.852 259.003 244.104 259.26 244.422 259.447 C 244.748 259.624 245.122 259.713 245.542 259.713 Z M 253.719 261.155 C 253.056 261.155 252.459 261.005 251.927 260.707 C 251.395 260.399 250.975 259.983 250.667 259.461 C 250.359 258.938 250.205 258.345 250.205 257.683 C 250.205 257.029 250.354 256.441 250.653 255.919 C 250.961 255.396 251.372 254.985 251.885 254.687 C 252.408 254.379 252.991 254.225 253.635 254.225 C 254.251 254.225 254.792 254.365 255.259 254.645 C 255.735 254.925 256.103 255.312 256.365 255.807 C 256.635 256.301 256.771 256.861 256.771 257.487 C 256.771 257.58 256.766 257.683 256.757 257.795 C 256.747 257.897 256.729 258.019 256.701 258.159 L 251.087 258.159 L 251.087 257.109 L 256.029 257.109 L 255.567 257.515 C 255.567 257.067 255.487 256.689 255.329 256.381 C 255.17 256.063 254.946 255.821 254.657 255.653 C 254.367 255.475 254.017 255.387 253.607 255.387 C 253.178 255.387 252.8 255.48 252.473 255.667 C 252.146 255.853 251.894 256.115 251.717 256.451 C 251.54 256.787 251.451 257.183 251.451 257.641 C 251.451 258.107 251.544 258.518 251.731 258.873 C 251.918 259.218 252.184 259.489 252.529 259.685 C 252.874 259.871 253.271 259.965 253.719 259.965 C 254.092 259.965 254.433 259.899 254.741 259.769 C 255.058 259.638 255.329 259.442 255.553 259.181 L 256.365 260.007 C 256.047 260.38 255.655 260.665 255.189 260.861 C 254.731 261.057 254.241 261.155 253.719 261.155 Z M 262.849 261.015 L 262.849 257.137 C 262.849 256.633 262.69 256.217 262.373 255.891 C 262.055 255.564 261.645 255.401 261.141 255.401 C 260.805 255.401 260.506 255.475 260.245 255.625 C 259.983 255.774 259.778 255.979 259.629 256.241 C 259.479 256.502 259.405 256.801 259.405 257.137 L 258.887 256.843 C 258.887 256.339 258.999 255.891 259.223 255.499 C 259.447 255.107 259.759 254.799 260.161 254.575 C 260.562 254.341 261.015 254.225 261.519 254.225 C 262.023 254.225 262.466 254.351 262.849 254.603 C 263.241 254.855 263.549 255.186 263.773 255.597 C 263.997 255.998 264.109 256.427 264.109 256.885 L 264.109 261.015 L 262.849 261.015 Z M 258.145 261.015 L 258.145 254.365 L 259.405 254.365 L 259.405 261.015 L 258.145 261.015 Z M 266.755 261.015 L 266.755 251.579 L 268.015 251.579 L 268.015 261.015 L 266.755 261.015 Z M 265.117 255.513 L 265.117 254.365 L 269.653 254.365 L 269.653 255.513 L 265.117 255.513 Z M 272.912 261.015 L 276.888 251.299 L 277.84 251.299 L 281.802 261.015 L 280.374 261.015 L 277.112 252.797 L 277.602 252.797 L 274.312 261.015 L 272.912 261.015 Z M 274.802 258.817 L 274.802 257.669 L 279.912 257.669 L 279.912 258.817 L 274.802 258.817 Z M 283.265 261.015 L 283.265 251.299 L 284.581 251.299 L 284.581 261.015 L 283.265 261.015 Z M 288.676 261.015 L 292.652 251.299 L 293.604 251.299 L 297.566 261.015 L 296.138 261.015 L 292.876 252.797 L 293.366 252.797 L 290.076 261.015 L 288.676 261.015 Z M 290.566 258.817 L 290.566 257.669 L 295.676 257.669 L 295.676 258.817 L 290.566 258.817 Z M 301.028 261.155 C 300.655 261.155 300.3 261.108 299.964 261.015 C 299.638 260.912 299.334 260.772 299.054 260.595 C 298.774 260.408 298.532 260.189 298.326 259.937 L 299.138 259.125 C 299.381 259.423 299.661 259.647 299.978 259.797 C 300.296 259.937 300.65 260.007 301.042 260.007 C 301.434 260.007 301.738 259.941 301.952 259.811 C 302.167 259.671 302.274 259.479 302.274 259.237 C 302.274 258.994 302.186 258.807 302.008 258.677 C 301.84 258.537 301.621 258.425 301.35 258.341 C 301.08 258.247 300.79 258.159 300.482 258.075 C 300.184 257.981 299.899 257.865 299.628 257.725 C 299.358 257.585 299.134 257.393 298.956 257.151 C 298.788 256.908 298.704 256.586 298.704 256.185 C 298.704 255.783 298.802 255.438 298.998 255.149 C 299.194 254.85 299.465 254.621 299.81 254.463 C 300.165 254.304 300.59 254.225 301.084 254.225 C 301.607 254.225 302.069 254.318 302.47 254.505 C 302.881 254.682 303.217 254.953 303.478 255.317 L 302.666 256.129 C 302.48 255.886 302.246 255.699 301.966 255.569 C 301.696 255.438 301.388 255.373 301.042 255.373 C 300.678 255.373 300.398 255.438 300.202 255.569 C 300.016 255.69 299.922 255.863 299.922 256.087 C 299.922 256.311 300.006 256.483 300.174 256.605 C 300.342 256.726 300.562 256.829 300.832 256.913 C 301.112 256.997 301.402 257.085 301.7 257.179 C 301.999 257.263 302.284 257.379 302.554 257.529 C 302.825 257.678 303.044 257.879 303.212 258.131 C 303.39 258.383 303.478 258.714 303.478 259.125 C 303.478 259.75 303.254 260.245 302.806 260.609 C 302.368 260.973 301.775 261.155 301.028 261.155 Z M 307.003 261.155 C 306.629 261.155 306.275 261.108 305.939 261.015 C 305.612 260.912 305.309 260.772 305.029 260.595 C 304.749 260.408 304.506 260.189 304.301 259.937 L 305.113 259.125 C 305.355 259.423 305.635 259.647 305.953 259.797 C 306.27 259.937 306.625 260.007 307.017 260.007 C 307.409 260.007 307.712 259.941 307.927 259.811 C 308.141 259.671 308.249 259.479 308.249 259.237 C 308.249 258.994 308.16 258.807 307.983 258.677 C 307.815 258.537 307.595 258.425 307.325 258.341 C 307.054 258.247 306.765 258.159 306.457 258.075 C 306.158 257.981 305.873 257.865 305.603 257.725 C 305.332 257.585 305.108 257.393 304.931 257.151 C 304.763 256.908 304.679 256.586 304.679 256.185 C 304.679 255.783 304.777 255.438 304.973 255.149 C 305.169 254.85 305.439 254.621 305.785 254.463 C 306.139 254.304 306.564 254.225 307.059 254.225 C 307.581 254.225 308.043 254.318 308.445 254.505 C 308.855 254.682 309.191 254.953 309.453 255.317 L 308.641 256.129 C 308.454 255.886 308.221 255.699 307.941 255.569 C 307.67 255.438 307.362 255.373 307.017 255.373 C 306.653 255.373 306.373 255.438 306.177 255.569 C 305.99 255.69 305.897 255.863 305.897 256.087 C 305.897 256.311 305.981 256.483 306.149 256.605 C 306.317 256.726 306.536 256.829 306.807 256.913 C 307.087 256.997 307.376 257.085 307.675 257.179 C 307.973 257.263 308.258 257.379 308.529 257.529 C 308.799 257.678 309.019 257.879 309.187 258.131 C 309.364 258.383 309.453 258.714 309.453 259.125 C 309.453 259.75 309.229 260.245 308.781 260.609 C 308.342 260.973 307.749 261.155 307.003 261.155 Z M 310.877 261.015 L 310.877 254.365 L 312.137 254.365 L 312.137 261.015 L 310.877 261.015 Z M 311.507 253.035 C 311.274 253.035 311.083 252.96 310.933 252.811 C 310.784 252.652 310.709 252.456 310.709 252.223 C 310.709 251.999 310.784 251.812 310.933 251.663 C 311.083 251.504 311.274 251.425 311.507 251.425 C 311.741 251.425 311.932 251.504 312.081 251.663 C 312.231 251.812 312.305 251.999 312.305 252.223 C 312.305 252.456 312.231 252.652 312.081 252.811 C 311.932 252.96 311.741 253.035 311.507 253.035 Z M 316.108 261.155 C 315.735 261.155 315.38 261.108 315.044 261.015 C 314.718 260.912 314.414 260.772 314.134 260.595 C 313.854 260.408 313.612 260.189 313.406 259.937 L 314.218 259.125 C 314.461 259.423 314.741 259.647 315.058 259.797 C 315.376 259.937 315.73 260.007 316.122 260.007 C 316.514 260.007 316.818 259.941 317.032 259.811 C 317.247 259.671 317.354 259.479 317.354 259.237 C 317.354 258.994 317.266 258.807 317.088 258.677 C 316.92 258.537 316.701 258.425 316.43 258.341 C 316.16 258.247 315.87 258.159 315.562 258.075 C 315.264 257.981 314.979 257.865 314.708 257.725 C 314.438 257.585 314.214 257.393 314.036 257.151 C 313.868 256.908 313.784 256.586 313.784 256.185 C 313.784 255.783 313.882 255.438 314.078 255.149 C 314.274 254.85 314.545 254.621 314.89 254.463 C 315.245 254.304 315.67 254.225 316.164 254.225 C 316.687 254.225 317.149 254.318 317.55 254.505 C 317.961 254.682 318.297 254.953 318.558 255.317 L 317.746 256.129 C 317.56 255.886 317.326 255.699 317.046 255.569 C 316.776 255.438 316.468 255.373 316.122 255.373 C 315.758 255.373 315.478 255.438 315.282 255.569 C 315.096 255.69 315.002 255.863 315.002 256.087 C 315.002 256.311 315.086 256.483 315.254 256.605 C 315.422 256.726 315.642 256.829 315.912 256.913 C 316.192 256.997 316.482 257.085 316.78 257.179 C 317.079 257.263 317.364 257.379 317.634 257.529 C 317.905 257.678 318.124 257.879 318.292 258.131 C 318.47 258.383 318.558 258.714 318.558 259.125 C 318.558 259.75 318.334 260.245 317.886 260.609 C 317.448 260.973 316.855 261.155 316.108 261.155 Z M 320.991 261.015 L 320.991 251.579 L 322.251 251.579 L 322.251 261.015 L 320.991 261.015 Z M 319.353 255.513 L 319.353 254.365 L 323.889 254.365 L 323.889 255.513 L 319.353 255.513 Z M 327.746 261.155 C 327.139 261.155 326.589 261.005 326.094 260.707 C 325.599 260.399 325.207 259.983 324.918 259.461 C 324.638 258.938 324.498 258.35 324.498 257.697 C 324.498 257.043 324.638 256.455 324.918 255.933 C 325.207 255.41 325.595 254.995 326.08 254.687 C 326.575 254.379 327.13 254.225 327.746 254.225 C 328.25 254.225 328.698 254.332 329.09 254.547 C 329.491 254.752 329.813 255.041 330.056 255.415 C 330.299 255.779 330.434 256.203 330.462 256.689 L 330.462 258.691 C 330.434 259.167 330.299 259.591 330.056 259.965 C 329.823 260.338 329.505 260.632 329.104 260.847 C 328.712 261.052 328.259 261.155 327.746 261.155 Z M 327.956 259.965 C 328.581 259.965 329.085 259.755 329.468 259.335 C 329.851 258.905 330.042 258.359 330.042 257.697 C 330.042 257.239 329.953 256.843 329.776 256.507 C 329.608 256.161 329.365 255.895 329.048 255.709 C 328.731 255.513 328.362 255.415 327.942 255.415 C 327.522 255.415 327.149 255.513 326.822 255.709 C 326.505 255.905 326.253 256.175 326.066 256.521 C 325.889 256.857 325.8 257.244 325.8 257.683 C 325.8 258.131 325.889 258.527 326.066 258.873 C 326.253 259.209 326.509 259.475 326.836 259.671 C 327.163 259.867 327.536 259.965 327.956 259.965 Z M 329.958 261.015 L 329.958 259.223 L 330.196 257.599 L 329.958 255.989 L 329.958 254.365 L 331.232 254.365 L 331.232 261.015 L 329.958 261.015 Z M 337.771 261.015 L 337.771 257.137 C 337.771 256.633 337.612 256.217 337.295 255.891 C 336.977 255.564 336.567 255.401 336.063 255.401 C 335.727 255.401 335.428 255.475 335.167 255.625 C 334.905 255.774 334.7 255.979 334.551 256.241 C 334.401 256.502 334.327 256.801 334.327 257.137 L 333.809 256.843 C 333.809 256.339 333.921 255.891 334.145 255.499 C 334.369 255.107 334.681 254.799 335.083 254.575 C 335.484 254.341 335.937 254.225 336.441 254.225 C 336.945 254.225 337.388 254.351 337.771 254.603 C 338.163 254.855 338.471 255.186 338.695 255.597 C 338.919 255.998 339.031 256.427 339.031 256.885 L 339.031 261.015 L 337.771 261.015 Z M 333.067 261.015 L 333.067 254.365 L 334.327 254.365 L 334.327 261.015 L 333.067 261.015 Z M 341.676 261.015 L 341.676 251.579 L 342.936 251.579 L 342.936 261.015 L 341.676 261.015 Z M 340.038 255.513 L 340.038 254.365 L 344.574 254.365 L 344.574 255.513 L 340.038 255.513 Z" fill="#7100DE" style="stroke-width: 1;"/>
</svg>